<svg xmlns="http://www.w3.org/2000/svg" viewBox="0 0 256 256" role="img" aria-labelledby="favicon-title favicon-desc">
  <title id="favicon-title">aima favicon</title>
  <desc id="favicon-desc">The aima letter A mark.</desc>
  <rect width="256" height="256" rx="56" fill="#FDF7EF" />
  <g transform="translate(26 18)">
    <path d="M85 14c11-24 23-36 45-36s37 12 48 36l61 133c9 20 1 43-19 50-18 7-38-1-47-18L118 61 56 184c-9 18-30 26-48 18-19-8-27-30-18-49L85 14Z" fill="#4285F4"/>
    <path d="M30 179c-19-8-27-30-18-49l42-93c11-24 23-36 45-36L62 78c-8 0-14 4-18 11L5 175c-9 19 0 41 19 49l6 3 48-105-48 57Z" fill="#F9AB00"/>
    <path d="M189 16c9-18 29-25 47-18 19 8 27 29 19 49l-63 136c-9 19-30 26-49 18-9-4-15-10-19-19l-21-45h62l15 31c2 5 6 8 11 10 9 3 18-1 22-9l58-125c4-10 1-21-8-26-6-3-13-3-18 0l-56-2Z" fill="#34A853"/>
    <path d="M112 137h62l-16-34H96l16 34Z" fill="#A14213"/>
    <path d="M118 61 150-8c11-24 34-31 55-18 9 6 15 16 17 26l-72 154-32-67Z" fill="#8E3FB0" fill-opacity="0.95"/>
  </g>
</svg>
