<svg xmlns="http://www.w3.org/2000/svg" viewBox="0 0 1200 630" role="img" aria-labelledby="og-title og-desc">
  <title id="og-title">USEAIMA social preview</title>
  <desc id="og-desc">A USEAIMA social preview image featuring the brand logo and tagline.</desc>
  <defs>
    <linearGradient id="og-bg-gradient" x1="0" y1="0" x2="1200" y2="630" gradientUnits="userSpaceOnUse">
      <stop offset="0" stop-color="#f9fcff" />
      <stop offset="1" stop-color="#eef7ff" />
    </linearGradient>
    <radialGradient id="og-glow-left" cx="0" cy="0" r="1" gradientTransform="translate(260 470) rotate(28) scale(360 260)" gradientUnits="userSpaceOnUse">
      <stop offset="0" stop-color="#3dd1f0" stop-opacity="0.28" />
      <stop offset="1" stop-color="#3dd1f0" stop-opacity="0" />
    </radialGradient>
    <radialGradient id="og-glow-right" cx="0" cy="0" r="1" gradientTransform="translate(880 180) rotate(-12) scale(300 220)" gradientUnits="userSpaceOnUse">
      <stop offset="0" stop-color="#8c55ef" stop-opacity="0.24" />
      <stop offset="1" stop-color="#8c55ef" stop-opacity="0" />
    </radialGradient>
    <linearGradient id="og-hex-gradient" x1="52" y1="284" x2="294" y2="54" gradientUnits="userSpaceOnUse">
      <stop offset="0" stop-color="#16d6d0" />
      <stop offset="0.38" stop-color="#3d90f1" />
      <stop offset="0.72" stop-color="#6547d6" />
      <stop offset="1" stop-color="#9b4de8" />
    </linearGradient>
    <linearGradient id="og-circuit-gradient" x1="72" y1="280" x2="246" y2="94" gradientUnits="userSpaceOnUse">
      <stop offset="0" stop-color="#19c9d0" />
      <stop offset="0.46" stop-color="#36a1eb" />
      <stop offset="1" stop-color="#7249db" />
    </linearGradient>
  </defs>
  <rect width="1200" height="630" fill="url(#og-bg-gradient)" rx="36" />
  <rect x="24" y="24" width="1152" height="582" fill="none" rx="28" stroke="#d7e7f8" />
  <ellipse cx="260" cy="470" rx="320" ry="220" fill="url(#og-glow-left)" />
  <ellipse cx="890" cy="180" rx="280" ry="210" fill="url(#og-glow-right)" />

  <g transform="translate(120 170)">
    <path
      d="M140 18 255 84v144l-115 66-115-66V84Z"
      fill="none"
      stroke="url(#og-hex-gradient)"
      stroke-linejoin="round"
      stroke-width="18"
    />
    <g
      fill="none"
      stroke="url(#og-circuit-gradient)"
      stroke-linecap="round"
      stroke-linejoin="round"
      stroke-width="15"
    >
      <path d="M58 132h34l29-29 15-20" />
      <path d="M136 104v70l-58 35v42" />
      <path d="M136 174l67-40" />
      <path d="M110 252v-41l86-49v22h24" />
    </g>
    <g fill="#fff" stroke="url(#og-circuit-gradient)" stroke-width="13">
      <circle cx="58" cy="132" r="13" />
      <circle cx="136" cy="82" r="17" />
      <circle cx="216" cy="134" r="17" />
      <circle cx="220" cy="184" r="17" />
    </g>
  </g>

  <text
    x="500"
    y="310"
    fill="#14284d"
    font-family="'Avenir Next', Montserrat, 'Segoe UI', Arial, sans-serif"
    font-size="120"
    font-weight="800"
    letter-spacing="6"
  >
    USEAIMA
  </text>
  <text
    x="500"
    y="390"
    fill="#47617f"
    font-family="'Avenir Next', Montserrat, 'Segoe UI', Arial, sans-serif"
    font-size="42"
    font-weight="500"
  >
    AI systems that help people make better decisions, every day.
  </text>
</svg>
